<?xml version="1.0" encoding="utf-8"?>
<!-- Generator: Adobe Illustrator 27.7.0, SVG Export Plug-In . SVG Version: 6.00 Build 0)  -->
<svg version="1.1" id="Layer_1" xmlns="http://www.w3.org/2000/svg" xmlns:xlink="http://www.w3.org/1999/xlink" x="0px" y="0px"
	 viewBox="0 0 335 335" style="enable-background:new 0 0 335 335;" xml:space="preserve">
<style type="text/css">
	.st0{fill:#4733FF;}
</style>
<path class="st0" d="M167.5,0C75,0,0,75,0,167.5S75,335,167.5,335S335,260,335,167.5S260,0,167.5,0z M59.7,105
	c1.2-2.2,3.3-3.7,4.8-4.5l97.8-56.3c3.6-2.1,7.1-2,10.8,0.1l11,6.3c0.5,0.2,1,0.9,0.9,1.9c0,0.9-0.6,1.6-1,1.8l-42.4,24.6
	c0,0-0.4,0.2-0.5,0.8c-0.1,0.7,0.5,1,0.5,1l42.2,24.1c0.4,0.1,1.1,0.8,1.2,1.9c0.2,1.2-0.4,2-0.9,2.3l-1.9,1.1l-55.9,32.5
	c-0.2,0.1-0.9,0.5-1.1,1.2c-0.3,0.7-0.2,1-0.3,1.4l0,21.6c0,0.4-0.2,1.3-1.1,1.8c-0.7,0.4-1.5,0.1-1.8,0l-15.4-8.9
	c-0.3-0.1-0.8-0.5-1.1-0.9c-0.3-0.4-0.3-1-0.3-1.3l-0.2-18.1c0-4.3,2.4-8.6,6.3-10.9l35.2-20.4c0,0,0.5-0.2,0.5-0.8
	c0-0.6-0.5-1-0.5-1l-25.9-14.9c-0.2-0.1-0.5-0.1-0.7,0l-40.9,23.6c-0.2,0.1-0.8,0.5-1,0.9c-0.4,0.7-0.4,1.3-0.4,1.6l-0.3,19.1
	c0,0.2-0.1,1-0.7,1.6c-0.7,0.6-1.6,0.5-2.3,0.1l-15.3-8.8c0,0-0.5-0.2-0.8-0.7c-0.4-0.5-0.4-1.2-0.4-1.4l0-16.2
	C58.2,109.5,58.5,107.1,59.7,105z M190.9,225.7c-0.2,0.4-0.7,0.8-0.9,0.9l-15.6,9.3c-3.7,2.2-8.7,2.2-12.5,0l-35.3-20.2
	c0,0-0.4-0.3-1,0c-0.6,0.3-0.6,0.9-0.6,0.9l0.1,29.8c0,0.2,0.1,0.5,0.3,0.6l40.9,23.6c0.2,0.1,0.8,0.4,1.3,0.4
	c0.8,0,1.3-0.3,1.6-0.5l16.7-9.3c0.2-0.1,0.9-0.4,1.7-0.2c0.9,0.3,1.3,1.2,1.3,1.9l0,17.6c0,0,0,0.5-0.2,1.1c-0.3,0.6-0.9,0.9-1,1
	l-14,8.1c-1.6,0.7-3.9,1.6-6.3,1.6c-2.5,0-4.9-1-6.3-1.9L63.3,234c-3.6-2.1-5.3-5.1-5.3-9.4l0-12.7c0-0.5,0.3-1.3,1.2-1.8
	c0.8-0.4,1.6-0.3,2.1,0l42.5,24.4c0,0,0.4,0.3,1,0c0.6-0.3,0.6-1,0.6-1L105,185c-0.1-0.4,0.1-1.3,1-2c0.9-0.7,1.9-0.7,2.5-0.4
	l1.9,1.1l56.1,32.1c0.2,0.1,0.9,0.5,1.6,0.4c0.7-0.1,0.9-0.3,1.3-0.5l18.7-10.8c0.3-0.2,1.3-0.5,2.1,0c0.7,0.4,0.9,1.3,0.9,1.6
	l0,17.8C191.2,224.6,191.2,225.2,190.9,225.7z M271.7,233.9l-11,6.4c-0.4,0.3-1.3,0.4-2.1-0.1c-0.8-0.5-1.1-1.3-1.1-1.8l-0.1-49
	c0,0,0-0.5-0.5-0.9c-0.6-0.4-1.1,0-1.1,0l-42,24.5c-0.3,0.3-1.2,0.6-2.3,0.1c-1.1-0.4-1.5-1.3-1.6-1.9l0-2.2l-0.3-64.7
	c0-0.2,0-1-0.4-1.6c-0.5-0.6-0.7-0.7-1-0.9l-18.7-10.7c-0.3-0.2-1.1-0.8-1.1-1.8c0-0.8,0.7-1.4,0.9-1.6l15.4-8.9
	c0.2-0.2,0.8-0.4,1.3-0.5c0.5,0,1.1,0.2,1.3,0.3l15.8,8.9c3.8,2.1,6.2,6.4,6.3,10.9l0.1,40.7c0,0,0,0.5,0.5,0.9c0.5,0.4,1.1,0,1.1,0
	l25.8-15c0.2-0.1,0.3-0.3,0.3-0.6l-0.1-47.2c0-0.2,0-0.9-0.3-1.3c-0.4-0.7-1-1-1.2-1.1l-16.4-9.8c-0.1-0.1-0.8-0.6-1-1.4
	c-0.2-0.9,0.4-1.7,1-2l15.3-8.9c0,0,0.4-0.3,1-0.3c0.6,0,1.2,0.3,1.4,0.4l14.1,8.1c1.4,1.1,3.3,2.5,4.6,4.6c1.3,2.2,1.6,4.7,1.5,6.4
	l0,112.9C277.1,228.8,275.3,231.8,271.7,233.9z"/>
</svg>
